<mxfile host="app.diagrams.net" modified="2021-12-17T08:19:47.633Z" agent="5.0 (Windows)" etag="iPYbQxzuiviu5LV6JG7x" version="15.9.6" type="github">
  <diagram id="sbbj4jJhF9YxJYqmi_2N" name="Page-1">
    <mxGraphModel dx="1071" dy="449" grid="1" gridSize="10" guides="1" tooltips="1" connect="1" arrows="1" fold="1" page="1" pageScale="1" pageWidth="827" pageHeight="1169" math="0" shadow="0">
      <root>
        <mxCell id="0" />
        <mxCell id="1" parent="0" />
        <mxCell id="K_uHgxIzHQ7pfxmup0vZ-3" value="" style="shape=table;startSize=0;container=1;collapsible=0;childLayout=tableLayout;" vertex="1" parent="1">
          <mxGeometry x="110" y="90" width="420" height="40" as="geometry" />
        </mxCell>
        <mxCell id="K_uHgxIzHQ7pfxmup0vZ-4" value="" style="shape=partialRectangle;collapsible=0;dropTarget=0;pointerEvents=0;fillColor=none;top=0;left=0;bottom=0;right=0;points=[[0,0.5],[1,0.5]];portConstraint=eastwest;" vertex="1" parent="K_uHgxIzHQ7pfxmup0vZ-3">
          <mxGeometry width="420" height="40" as="geometry" />
        </mxCell>
        <mxCell id="K_uHgxIzHQ7pfxmup0vZ-5" value="1" style="shape=partialRectangle;html=1;whiteSpace=wrap;connectable=0;overflow=hidden;fillColor=none;top=0;left=0;bottom=0;right=0;pointerEvents=1;" vertex="1" parent="K_uHgxIzHQ7pfxmup0vZ-4">
          <mxGeometry width="60" height="40" as="geometry">
            <mxRectangle width="60" height="40" as="alternateBounds" />
          </mxGeometry>
        </mxCell>
        <mxCell id="K_uHgxIzHQ7pfxmup0vZ-6" value="4" style="shape=partialRectangle;html=1;whiteSpace=wrap;connectable=0;overflow=hidden;fillColor=none;top=0;left=0;bottom=0;right=0;pointerEvents=1;" vertex="1" parent="K_uHgxIzHQ7pfxmup0vZ-4">
          <mxGeometry x="60" width="60" height="40" as="geometry">
            <mxRectangle width="60" height="40" as="alternateBounds" />
          </mxGeometry>
        </mxCell>
        <mxCell id="K_uHgxIzHQ7pfxmup0vZ-7" value="5" style="shape=partialRectangle;html=1;whiteSpace=wrap;connectable=0;overflow=hidden;fillColor=none;top=0;left=0;bottom=0;right=0;pointerEvents=1;" vertex="1" parent="K_uHgxIzHQ7pfxmup0vZ-4">
          <mxGeometry x="120" width="60" height="40" as="geometry">
            <mxRectangle width="60" height="40" as="alternateBounds" />
          </mxGeometry>
        </mxCell>
        <mxCell id="K_uHgxIzHQ7pfxmup0vZ-8" value="6" style="shape=partialRectangle;html=1;whiteSpace=wrap;connectable=0;overflow=hidden;fillColor=none;top=0;left=0;bottom=0;right=0;pointerEvents=1;" vertex="1" parent="K_uHgxIzHQ7pfxmup0vZ-4">
          <mxGeometry x="180" width="60" height="40" as="geometry">
            <mxRectangle width="60" height="40" as="alternateBounds" />
          </mxGeometry>
        </mxCell>
        <mxCell id="K_uHgxIzHQ7pfxmup0vZ-9" value="7" style="shape=partialRectangle;html=1;whiteSpace=wrap;connectable=0;overflow=hidden;fillColor=none;top=0;left=0;bottom=0;right=0;pointerEvents=1;" vertex="1" parent="K_uHgxIzHQ7pfxmup0vZ-4">
          <mxGeometry x="240" width="60" height="40" as="geometry">
            <mxRectangle width="60" height="40" as="alternateBounds" />
          </mxGeometry>
        </mxCell>
        <mxCell id="K_uHgxIzHQ7pfxmup0vZ-10" value="9" style="shape=partialRectangle;html=1;whiteSpace=wrap;connectable=0;overflow=hidden;fillColor=none;top=0;left=0;bottom=0;right=0;pointerEvents=1;" vertex="1" parent="K_uHgxIzHQ7pfxmup0vZ-4">
          <mxGeometry x="300" width="60" height="40" as="geometry">
            <mxRectangle width="60" height="40" as="alternateBounds" />
          </mxGeometry>
        </mxCell>
        <mxCell id="K_uHgxIzHQ7pfxmup0vZ-11" value="8" style="shape=partialRectangle;html=1;whiteSpace=wrap;connectable=0;overflow=hidden;fillColor=none;top=0;left=0;bottom=0;right=0;pointerEvents=1;" vertex="1" parent="K_uHgxIzHQ7pfxmup0vZ-4">
          <mxGeometry x="360" width="60" height="40" as="geometry">
            <mxRectangle width="60" height="40" as="alternateBounds" />
          </mxGeometry>
        </mxCell>
        <mxCell id="K_uHgxIzHQ7pfxmup0vZ-12" value="7" style="rounded=0;whiteSpace=wrap;html=1;" vertex="1" parent="1">
          <mxGeometry x="110" y="30" width="50" height="30" as="geometry" />
        </mxCell>
        <mxCell id="K_uHgxIzHQ7pfxmup0vZ-15" value="" style="endArrow=classic;html=1;rounded=0;" edge="1" parent="1">
          <mxGeometry width="50" height="50" relative="1" as="geometry">
            <mxPoint x="119.83000000000004" y="160" as="sourcePoint" />
            <mxPoint x="119.83000000000004" y="140" as="targetPoint" />
          </mxGeometry>
        </mxCell>
        <mxCell id="K_uHgxIzHQ7pfxmup0vZ-17" value="i" style="text;html=1;align=center;verticalAlign=middle;resizable=0;points=[];autosize=1;strokeColor=none;fillColor=none;" vertex="1" parent="1">
          <mxGeometry x="110" y="160" width="20" height="20" as="geometry" />
        </mxCell>
        <mxCell id="K_uHgxIzHQ7pfxmup0vZ-18" value="" style="endArrow=classic;html=1;rounded=0;" edge="1" parent="1">
          <mxGeometry width="50" height="50" relative="1" as="geometry">
            <mxPoint x="159.83000000000004" y="160" as="sourcePoint" />
            <mxPoint x="159.83000000000004" y="140" as="targetPoint" />
          </mxGeometry>
        </mxCell>
        <mxCell id="K_uHgxIzHQ7pfxmup0vZ-19" value="j" style="text;html=1;align=center;verticalAlign=middle;resizable=0;points=[];autosize=1;strokeColor=none;fillColor=none;" vertex="1" parent="1">
          <mxGeometry x="150" y="160" width="20" height="20" as="geometry" />
        </mxCell>
      </root>
    </mxGraphModel>
  </diagram>
</mxfile>
